<?xml version="1.0" standalone="no"?>
<!DOCTYPE svg PUBLIC "-//W3C//DTD SVG 20010904//EN"
 "http://www.w3.org/TR/2001/REC-SVG-20010904/DTD/svg10.dtd">
<svg version="1.0" xmlns="http://www.w3.org/2000/svg"
 width="558.000000pt" height="558.000000pt" viewBox="0 0 558.000000 558.000000"
 preserveAspectRatio="xMidYMid meet">
<metadata>
Created by potrace 1.11, written by Peter Selinger 2001-2013
</metadata>
<g transform="translate(0.000000,558.000000) scale(0.100000,-0.100000)"
fill="#000000" stroke="none">
<path d="M0 2790 l0 -1640 2790 0 2790 0 0 1640 0 1640 -2790 0 -2790 0 0
-1640z m5040 508 c106 -163 147 -408 100 -594 -56 -217 -209 -414 -324 -414
-99 0 -166 69 -166 173 0 141 111 350 227 427 51 33 83 34 131 3 13 -8 26 -13
28 -10 2 2 -5 38 -15 79 -19 74 -68 182 -118 261 -23 36 -23 40 -8 63 18 28
72 64 95 64 8 0 31 -24 50 -52z m-4119 -94 c28 -13 52 -31 55 -39 3 -8 -8 -33
-24 -57 -111 -162 -195 -420 -196 -603 -1 -145 24 -185 119 -185 95 0 175 72
250 225 75 154 114 347 115 566 l0 116 43 -8 c82 -15 80 -13 73 -101 -19 -232
-112 -525 -214 -675 -82 -121 -174 -183 -284 -191 -136 -10 -221 42 -253 153
-42 142 26 485 148 748 l41 89 39 -6 c21 -4 61 -18 88 -32z m1749 9 c21 -26
36 -75 29 -89 -2 -4 -43 -6 -92 -5 -48 1 -107 -1 -131 -4 l-44 -7 -40 -97
c-84 -201 -186 -527 -213 -679 -7 -41 -18 -76 -25 -79 -30 -11 -139 80 -129
109 2 7 15 51 30 97 14 46 68 205 120 352 52 148 95 271 95 273 0 2 -49 1
-109 -2 -107 -5 -110 -4 -135 21 -20 20 -26 36 -26 69 l0 43 122 -3 c68 -1
186 4 263 11 77 8 168 15 202 16 56 1 64 -1 83 -26z m611 -214 c19 -7 42 -19
51 -27 16 -14 16 -17 -8 -45 -28 -33 -108 -186 -101 -193 3 -3 19 13 36 35 43
53 104 101 152 117 34 12 44 12 78 -2 62 -25 75 -79 46 -202 -33 -139 -120
-258 -228 -312 -66 -33 -103 -37 -133 -16 -18 14 -16 17 37 68 31 29 71 75 89
101 60 90 144 296 127 313 -26 26 -235 -208 -287 -321 -39 -86 -101 -276 -145
-450 -21 -82 -40 -152 -42 -154 -2 -3 -20 12 -41 32 l-36 37 1 87 c1 112 34
228 141 505 44 111 87 228 97 258 18 57 56 132 83 163 18 20 36 21 83 6z m617
-9 c23 -10 42 -22 42 -26 0 -4 -15 -30 -34 -58 -38 -57 -70 -119 -81 -156 -6
-18 6 -9 45 33 91 99 174 133 234 93 40 -26 48 -58 37 -142 -25 -173 -110
-302 -245 -369 -57 -29 -92 -31 -123 -10 -20 14 -19 16 56 92 61 62 86 97 123
173 47 96 85 207 74 217 -18 18 -127 -88 -224 -218 -72 -95 -132 -255 -207
-546 -20 -76 -38 -144 -41 -151 -7 -24 -62 29 -75 73 -24 83 10 246 101 480
23 61 69 182 102 270 32 88 73 184 91 213 36 59 54 64 125 32z m-2304 -101
c52 -61 53 -57 -78 -284 -48 -84 -59 -117 -25 -75 181 220 308 330 379 330 29
0 65 -22 80 -50 8 -14 4 -24 -18 -48 -57 -61 -132 -236 -132 -307 0 -42 15
-55 50 -45 55 16 55 -22 0 -50 -60 -30 -115 -27 -152 10 -29 29 -30 33 -26
103 3 47 13 94 30 135 14 34 21 62 16 62 -22 0 -184 -170 -261 -273 -52 -70
-86 -107 -96 -105 -31 6 -53 68 -47 135 10 115 123 401 191 482 30 35 45 32
89 -20z m2964 17 c52 -27 65 -50 58 -103 -17 -119 -89 -204 -233 -275 -81 -40
-83 -42 -83 -77 0 -47 24 -81 56 -81 38 0 102 37 160 92 49 47 74 55 74 24 0
-24 -128 -136 -184 -162 -49 -22 -59 -24 -98 -14 -54 15 -112 72 -129 129 -29
98 36 275 139 380 90 90 174 121 240 87z m-1798 -32 c50 -46 51 -66 3 -84 -60
-21 -157 -126 -198 -213 -37 -77 -52 -135 -41 -162 17 -45 122 72 212 234 119
216 108 205 164 176 17 -9 30 -19 30 -24 0 -5 -18 -53 -39 -107 -22 -55 -47
-137 -56 -183 -16 -77 -16 -86 -1 -124 19 -49 12 -57 -50 -57 -64 0 -78 22
-72 115 l5 75 -33 -48 c-40 -59 -125 -138 -159 -146 -36 -9 -79 17 -100 60
-13 29 -16 54 -13 114 4 64 11 90 48 166 63 130 170 233 252 243 5 1 26 -15
48 -35z"/>
<path d="M4967 2775 c-99 -96 -190 -253 -203 -345 -5 -37 -2 -50 14 -70 l21
-25 38 21 c51 29 134 153 168 252 28 82 45 222 28 222 -6 0 -36 -25 -66 -55z"/>
<path d="M4466 2775 c-20 -14 -48 -37 -61 -53 -28 -31 -98 -163 -90 -170 14
-14 149 99 180 152 53 91 41 119 -29 71z"/>
</g>
</svg>
